<?xml version="1.0" standalone="no"?>
<!DOCTYPE svg PUBLIC "-//W3C//DTD SVG 20010904//EN"
 "http://www.w3.org/TR/2001/REC-SVG-20010904/DTD/svg10.dtd">
<svg version="1.0" xmlns="http://www.w3.org/2000/svg"
 width="1092.000000pt" height="1092.000000pt" viewBox="0 0 1092.000000 1092.000000"
 preserveAspectRatio="xMidYMid meet">
<metadata>
Created by potrace 1.11, written by Peter Selinger 2001-2013
</metadata>
<g transform="translate(0.000000,1092.000000) scale(0.100000,-0.100000)"
fill="#000000" stroke="none">
<path d="M6450 9188 c-19 -11 -48 -28 -65 -37 -28 -16 -372 -212 -405 -231
-81 -47 -193 -110 -197 -110 -3 0 -17 -8 -31 -18 -15 -11 -52 -32 -82 -49 -30
-16 -89 -50 -130 -74 -41 -24 -86 -50 -100 -57 -14 -7 -38 -21 -55 -32 -16
-11 -37 -23 -45 -27 -8 -4 -64 -35 -124 -70 -60 -35 -110 -63 -112 -63 -2 0
-28 -16 -58 -35 -30 -19 -57 -35 -60 -35 -2 0 -39 -20 -80 -45 -42 -25 -81
-45 -86 -45 -6 0 -10 -4 -10 -9 0 -5 -10 -13 -22 -17 -13 -4 -41 -18 -63 -32
-22 -14 -58 -36 -80 -47 -22 -12 -56 -31 -75 -42 -183 -105 -287 -165 -300
-173 -8 -6 -26 -16 -40 -22 -14 -7 -49 -27 -77 -46 -29 -18 -53 -29 -53 -25 0
4 -4 3 -8 -2 -6 -9 -109 -75 -117 -75 -2 0 -59 -32 -127 -71 -67 -39 -143 -83
-168 -97 -25 -14 -74 -42 -109 -64 -34 -21 -64 -38 -66 -38 -1 0 -42 -23 -91
-51 -49 -29 -109 -63 -134 -77 -25 -14 -62 -36 -82 -49 -21 -12 -42 -23 -48
-23 -5 0 -10 -4 -10 -10 0 -5 -5 -10 -11 -10 -6 0 -41 -17 -77 -39 -106 -61
-142 -82 -263 -150 -63 -36 -116 -67 -119 -70 -5 -6 -63 -38 -125 -70 -16 -9
-32 -19 -35 -22 -3 -3 -41 -25 -85 -50 -44 -24 -87 -48 -96 -54 -38 -24 -104
-58 -108 -56 -2 2 -7 -1 -10 -6 -5 -7 -325 -196 -436 -257 -20 -11 -467 -270
-495 -286 -16 -10 -361 -208 -420 -242 -226 -129 -378 -226 -384 -246 -15 -49
-17 -123 -21 -633 l-5 -556 108 -64 c59 -35 114 -68 124 -74 9 -5 29 -17 45
-26 15 -9 108 -64 206 -122 98 -59 182 -107 187 -107 6 0 10 -4 10 -9 0 -5 8
-11 18 -14 17 -6 93 -48 102 -57 7 -7 72 -44 138 -77 l53 -28 67 36 c37 20 87
47 112 60 25 13 47 26 50 29 3 3 21 13 40 22 19 10 60 31 90 49 30 17 80 45
110 62 30 16 72 41 92 54 21 12 40 23 42 23 3 0 61 31 128 69 68 37 159 87
202 109 l79 40 66 -36 c36 -19 74 -42 84 -50 9 -8 17 -12 17 -8 0 4 13 -2 29
-13 16 -12 31 -21 34 -21 2 0 42 -22 88 -50 46 -27 90 -50 97 -50 6 0 12 -4
12 -10 0 -5 7 -10 15 -10 8 0 15 -4 15 -10 0 -5 4 -10 10 -10 5 0 116 -61 245
-136 130 -74 243 -138 251 -141 7 -3 33 5 56 17 102 53 214 114 224 122 7 5
31 19 55 31 50 27 150 82 194 107 34 20 103 58 190 106 33 18 116 64 185 102
l125 70 85 -45 c47 -24 103 -54 125 -67 22 -12 76 -42 120 -66 44 -24 98 -54
120 -67 22 -13 56 -31 75 -41 19 -9 37 -19 40 -22 3 -3 19 -12 35 -20 17 -8
62 -33 100 -56 39 -23 88 -49 110 -60 22 -10 42 -21 45 -24 3 -3 28 -16 55
-30 28 -13 58 -30 67 -38 15 -13 25 -10 85 21 37 20 88 46 113 59 25 13 47 25
50 28 3 4 64 38 135 78 72 40 155 86 185 103 98 56 144 81 215 119 132 71 149
80 153 75 3 -3 6 -22 8 -42 7 -90 22 -1016 27 -1725 1 -164 4 -298 7 -298 3 0
5 -28 4 -63 0 -59 1 -63 32 -85 18 -12 35 -22 37 -22 3 0 51 -28 108 -63 57
-34 115 -68 129 -75 14 -7 45 -25 70 -40 25 -16 72 -43 105 -61 33 -18 65 -36
70 -41 10 -7 99 -57 163 -91 18 -9 38 -22 45 -27 7 -6 39 -24 72 -41 33 -18
92 -49 132 -71 42 -23 80 -37 93 -35 12 2 56 23 98 46 85 46 620 351 667 380
17 10 39 23 50 29 11 5 38 21 60 34 22 14 61 37 87 52 28 16 47 34 50 48 1 11
3 159 3 328 0 170 4 308 8 308 5 0 5 6 0 12 -9 16 -10 48 -1 69 4 8 3 21 -2
29 -5 8 -6 18 -3 23 3 6 7 89 8 185 3 172 4 177 26 194 35 27 43 32 70 47 231
134 296 173 309 181 8 5 52 31 98 57 46 27 91 53 100 58 9 6 73 43 142 84 69
41 127 78 128 83 2 4 10 8 17 8 18 0 75 55 76 72 0 7 2 78 4 158 2 80 7 262
10 405 4 143 8 287 10 320 2 33 4 92 4 131 l1 71 43 29 c62 42 80 53 100 60 9
3 17 9 17 13 0 3 15 12 33 20 17 8 34 18 37 21 3 4 25 18 50 30 25 12 47 25
50 29 3 3 35 22 72 41 37 19 68 38 68 41 0 3 16 11 35 19 19 8 35 17 35 22 0
4 4 8 10 8 8 0 138 72 180 100 8 6 22 13 30 17 8 4 32 17 53 31 22 13 60 35
85 49 77 43 81 47 82 68 0 11 2 286 5 612 l4 592 -37 22 c-79 47 -683 393
-767 439 -157 86 -226 120 -245 120 -22 0 -156 -66 -166 -81 -3 -5 -14 -9 -25
-9 -10 0 -19 -4 -19 -8 0 -5 -12 -15 -27 -22 -16 -8 -39 -22 -53 -31 -14 -9
-29 -18 -35 -19 -5 -1 -40 -20 -77 -41 -36 -21 -71 -39 -76 -39 -6 0 -12 -4
-14 -8 -1 -5 -39 -28 -83 -53 -44 -24 -89 -49 -100 -56 -11 -7 -27 -15 -35
-19 -8 -4 -47 -27 -87 -50 -39 -23 -81 -45 -92 -49 -12 -3 -21 -10 -21 -15 0
-4 -8 -10 -17 -14 -10 -3 -25 -10 -33 -15 -8 -5 -105 -60 -215 -122 -110 -62
-233 -132 -273 -156 -40 -23 -79 -43 -87 -43 -7 0 -15 -4 -17 -8 -4 -10 -74
-50 -271 -157 -111 -59 -102 -73 -103 164 -1 113 -4 397 -8 631 -3 234 -9 587
-12 786 -5 311 -10 557 -13 602 -1 7 -36 35 -78 62 -43 27 -82 53 -88 58 -5 4
-17 11 -25 15 -8 4 -31 17 -51 29 -89 56 -182 108 -190 108 -5 0 -9 5 -9 10 0
6 -4 10 -9 10 -5 0 -46 22 -90 50 -45 27 -81 47 -81 44 0 -3 -12 3 -27 14 -58
41 -281 152 -304 151 -13 0 -40 -10 -59 -21z"/>
</g>
</svg>
